<?xml version="1.0" encoding="utf-8"?>
<!DOCTYPE svg PUBLIC "-//W3C//DTD SVG 1.0//EN" "http://www.w3.org/TR/2001/REC-SVG-20010904/DTD/svg10.dtd">
<svg version="1.0" xmlns="http://www.w3.org/2000/svg" width="803px" height="362px" viewBox="0 0 803 362" preserveAspectRatio="xMidYMid meet">
 <g fill="#ffffff">
  <path d="M0 181 l0 -181 401.50 0 401.50 0 0 181 0 181 -401.50 0 -401.50 0 0 -181z m190.50 62.55 c0.80 -0.25 -0.55 -0.50 -4 -0.65 -2.90 -0.10 -5.70 -0.40 -6.25 -0.65 -0.55 -0.20 -0.85 -0.25 -0.65 0 1.20 1.25 8.15 2.10 10.90 1.30z m53.30 -0.25 c5.95 -1.60 11.25 -6 14.10 -11.80 1.15 -2.35 1.35 -3.40 1.35 -7 0 -3.85 -0.15 -4.65 -1.70 -7.75 -1.40 -2.85 -2.80 -4.60 -7.70 -9.40 -3.30 -3.25 -6.20 -5.80 -6.40 -5.75 -0.20 0.10 -6.40 6 -13.75 13.15 l-13.35 12.95 6.60 6.40 c3.60 3.50 7.50 6.85 8.65 7.45 4.75 2.45 7.90 2.90 12.20 1.75z m-75.55 -19 c0 -5.60 -0.25 -6.15 -1 -1.95 -0.25 1.65 0.45 7.65 0.90 7.65 0.05 0 0.10 -2.55 0.10 -5.70z m401.85 -2.80 c1.65 -4 5.85 -14.40 9.40 -23.10 l6.45 -15.90 -3.60 0 -3.60 0 -4.05 11.15 -4.05 11.10 -1.75 0.15 -1.70 0.15 -4.45 -11.30 -4.45 -11.25 -3.45 0 c-3.30 0 -3.40 0.05 -3.05 1.10 0.20 0.65 3.25 7.60 6.75 15.45 7.65 17 7.60 16.55 4.20 24.40 -1.25 2.85 -2.25 5.25 -2.25 5.40 0 0.10 1.50 0.15 3.30 0.05 l3.35 -0.15 2.95 -7.25z m-355.70 -2.15 l3.10 -3.15 -3.30 0.20 c-5.15 0.35 -6.70 -1.05 -6.70 -5.90 0 -3.20 0.70 -4.70 2.80 -5.70 2.20 -1 3.65 -1 6.25 0.05 3.05 1.20 4.30 4.85 2.95 8.50 -0.35 0.90 2.75 -1.90 9.10 -8.20 l9.60 -9.60 -11.05 -11.05 c-6.10 -6.05 -11.15 -11 -11.25 -11 -0.10 0 -4.55 4.40 -9.90 9.80 -5.35 5.40 -9.25 9.55 -8.65 9.25 1.55 -0.80 5.95 -0.70 7.60 0.20 1.80 0.90 2.05 1.60 2.05 5.55 0 2.85 -0.15 3.40 -1.30 4.45 -1.15 1.05 -1.85 1.25 -4.55 1.25 -2.90 0 -3.35 -0.15 -4.75 -1.50 -1.40 -1.45 -1.45 -1.70 -1.30 -5 l0.15 -3.50 -3.25 3.25 -3.25 3.25 11 11 c6.05 6.05 11.10 11 11.25 11 0.15 0 1.70 -1.40 3.40 -3.15z m143.35 -4.60 c2.65 -1.20 6.75 -4 6.75 -4.65 0 -0.20 -0.85 -0.80 -1.90 -1.35 l-1.90 -1.05 -2.20 1.45 c-2.20 1.35 -2.40 1.40 -8.05 1.25 -5.20 -0.15 -5.95 -0.25 -7.60 -1.40 -2.05 -1.40 -3.50 -4.20 -3.25 -6.30 l0.15 -1.45 14.25 -0.05 14.25 -0.05 -0.15 -2.40 c-0.20 -3.65 -0.95 -5.90 -3 -8.95 -4.15 -6.15 -12.15 -9.35 -18.40 -7.30 -5.25 1.70 -10.20 5.55 -12.25 9.60 -1.50 2.95 -1.85 8.30 -0.75 12.05 1.60 5.40 7.80 10.50 14.40 11.80 2.95 0.60 6.65 0.10 9.65 -1.20z m104.65 -1.10 l0.15 -2.65 -2.30 0 c-1.75 0 -2.60 -0.30 -3.50 -1.25 -1.25 -1.20 -1.25 -1.20 -1.25 -12 l0 -10.75 3.50 0 3.50 0 0 -2.75 0 -2.75 -3.50 0 -3.50 0 0 -4.75 0 -4.75 -3.50 0 -3.50 0 0 4.75 0 4.75 -2.25 0 -2.25 0 0 2.70 0 2.75 2.15 0.15 2.10 0.15 0.25 11.75 c0.25 12.65 0.50 13.70 3.05 15.60 1.45 1.10 5.15 1.85 8.45 1.75 l2.25 -0.10 0.15 -2.60z m72.65 2.05 c6.60 -1.85 10.10 -7.85 7.65 -13.05 -1.65 -3.35 -4.90 -5 -13.40 -6.65 -2.70 -0.55 -5.35 -1.35 -5.85 -1.80 -1.20 -1.10 -1.30 -4.80 -0.15 -5.90 1.10 -1.15 9.60 -1.10 12.90 0 l2.40 0.85 1.20 -1.45 c0.65 -0.80 1.10 -1.65 1.05 -1.95 -0.20 -0.80 -5.35 -3.10 -8.40 -3.75 -3.05 -0.65 -5.05 -0.45 -9.20 0.85 -4.80 1.50 -7.25 4.25 -7.25 8.15 0 2.40 0.85 4.25 2.85 6.05 2.60 2.40 4 3 10.40 4.20 3.50 0.70 6.70 1.50 7.05 1.80 0.40 0.35 0.70 1.55 0.70 2.95 0 2 -0.20 2.60 -1.30 3.45 -1.90 1.50 -9.40 1.50 -13.75 0 -3.30 -1.15 -3.35 -1.10 -4.95 1.65 -0.85 1.45 3.30 3.55 9.25 4.65 4.70 0.90 5.45 0.90 8.80 -0.05z m123.25 0.30 c5.15 -0.90 9.40 -3.25 11.70 -6.45 l1 -1.40 -2.30 -0.90 c-2 -0.75 -2.35 -0.75 -2.85 -0.10 -0.35 0.40 -1.50 1.35 -2.55 2.05 -1.65 1.10 -2.50 1.30 -5.75 1.30 -5.05 0 -7.40 -0.75 -9.60 -2.95 -2.30 -2.30 -3.15 -5.15 -2.85 -9.85 0.25 -4.05 1.45 -6.40 4.25 -8.55 1.45 -1.10 2.35 -1.35 5.65 -1.55 5.40 -0.30 7.15 0.10 9.45 2.30 l2 1.90 2.40 -1.05 2.40 -1.05 -2.65 -2.55 c-5 -4.80 -11.85 -6.45 -17.60 -4.15 -7.35 2.90 -12.50 9.50 -12.50 15.95 0 7.35 7.20 15.50 15 17.10 0.95 0.20 1.75 0.35 1.80 0.40 0 0 1.35 -0.20 3 -0.45z m-259.45 -0.80 c1.30 -0.45 3 -1.25 3.75 -1.75 0.70 -0.55 2 -0.95 2.85 -0.95 1.40 0 1.55 0.15 1.55 1.50 l0 1.50 3.50 0 3.50 0 -0.10 -16.60 -0.15 -16.65 -3.25 0 -3.25 0 -0.15 1.65 c-0.15 1.45 -0.30 1.60 -1.80 1.60 -0.95 0 -2.30 -0.55 -3.35 -1.25 -9.35 -6.95 -23.95 2 -23.95 14.65 0 8.80 7.60 17 15.85 17.05 1.45 0.05 3.70 -0.30 5 -0.75z m-101.25 -11.30 c0.15 -12.90 0.35 -13.75 3.35 -15.75 1.35 -0.95 2.40 -1.15 5.15 -1.15 2.10 0 4.15 0.30 5.10 0.75 2.95 1.40 3.05 1.80 3.20 15.40 l0.15 12.35 3.50 0 3.55 0 -0.20 -12.35 c-0.15 -12.40 -0.15 -12.40 -1.50 -15 -1.70 -3.25 -4 -5 -7.70 -6 -3.40 -0.85 -6.30 -0.35 -9.30 1.65 -1.10 0.70 -2.60 1.20 -3.65 1.20 l-1.75 0 0 -8.25 0 -8.25 -3.25 0 -3.25 0 0 23.50 0 23.50 3.20 0 3.20 0 0.20 -11.60z m135.90 -11.90 l0 -23.50 -3.50 0 -3.50 0 0 23.50 0 23.50 3.50 0 3.50 0 0 -23.50z m46.60 11.90 c0.15 -12.95 0.40 -14 3.55 -15.90 1.80 -1.15 7.15 -1.35 9.75 -0.45 3.15 1.10 3.35 1.85 3.50 15.60 l0.15 12.35 3.50 0 3.50 0 -0.15 -12.35 -0.15 -12.40 -1.35 -2.60 c-3.40 -6.35 -10.95 -8.30 -17 -4.35 -1.10 0.70 -2.60 1.20 -3.65 1.20 l-1.75 0 0 -8.25 0 -8.25 -3.25 0 -3.25 0 0 23.50 0 23.50 3.20 0 3.20 0 0.20 -11.60z m122.90 1 c0 -5.85 0.25 -11.55 0.50 -12.65 0.30 -1.25 1.10 -2.60 2.20 -3.60 1.70 -1.55 1.95 -1.65 5.75 -1.65 4.45 0 6.10 0.55 7.40 2.45 0.80 1.15 0.90 2.85 1.05 13.70 l0.20 12.35 3.45 0 3.45 0 0 -11.15 c0 -12.10 -0.35 -14.30 -2.70 -17.90 -1.40 -2.10 -4.80 -4.10 -7.95 -4.65 -2.25 -0.40 -6.60 0.70 -8.50 2.20 -0.70 0.60 -2 1 -3.05 1 -1.55 0 -1.80 -0.15 -1.80 -1.20 0 -1.55 -0.95 -1.85 -4.30 -1.50 l-2.70 0.35 0 16.40 0 16.45 3.50 0 3.50 0 0 -10.60z m-405.75 -23.35 l13.30 -13.20 -6.35 -6.40 c-6.75 -6.80 -9.30 -8.45 -14.55 -9.40 -2.85 -0.55 -8.10 0.30 -10.80 1.80 -2.95 1.65 -7.30 5.65 -8.60 8 -3.30 5.90 -3.55 11.30 -0.75 16.95 1.25 2.55 3.05 4.85 7.65 9.55 3.30 3.40 6.20 6.10 6.40 6.05 0.20 -0.10 6.40 -6.10 13.70 -13.35z m62.60 -10.80 c-0.15 -1.65 -0.60 -3.80 -1 -4.75 -0.75 -1.65 -0.80 -1.65 -0.45 -0.25 0.20 0.85 0.35 3.95 0.35 6.95 0 5.25 0 5.35 0.65 3.25 0.40 -1.25 0.55 -3.50 0.45 -5.20z m-17.20 -18.30 c-1 -0.30 -2.55 -0.30 -4 0 -2.30 0.40 -2.25 0.45 1.60 0.45 3.30 0 3.70 -0.05 2.40 -0.45z"/>
  <path d="M222.25 203.40 c-1.80 -0.95 -2.25 -2 -2.25 -5.45 0 -4.75 0.80 -5.60 5.40 -5.85 3.40 -0.20 3.65 -0.15 5.10 1.30 1.35 1.35 1.50 1.85 1.50 4.60 0 2.75 -0.15 3.25 -1.45 4.55 -1.30 1.25 -1.80 1.45 -4.40 1.45 -1.60 0 -3.35 -0.30 -3.90 -0.60z"/>
  <path d="M210.15 191.25 c-2.05 -0.90 -2.65 -2.10 -2.65 -5.50 0 -2.45 0.20 -3 1.45 -4.30 1.30 -1.30 1.80 -1.45 4.55 -1.45 2.75 0 3.25 0.15 4.55 1.45 1.25 1.30 1.45 1.85 1.45 4.30 0 3.45 -0.60 4.65 -2.75 5.55 -2.15 0.90 -4.50 0.85 -6.60 -0.05z"/>
  <path d="M340.50 197.10 c-0.85 -0.30 -0.55 -4.25 0.50 -5.80 0.50 -0.85 1.80 -2 2.85 -2.65 1.65 -1 2.60 -1.15 6.70 -1.15 4.15 0 5 0.15 6.45 1.15 2.40 1.60 3.60 3.45 3.85 6.05 l0.30 2.30 -1.95 0.05 c-4.65 0.15 -18.25 0.20 -18.70 0.05z"/>
  <path d="M389.15 209.15 c-1.15 -0.70 -2.60 -2.25 -3.25 -3.35 -1 -1.80 -1.15 -2.70 -1.15 -7.05 0 -4.25 0.15 -5.25 1.10 -6.75 2.50 -4 5.60 -5.30 11.65 -4.90 4.25 0.30 6.25 1.45 8.25 4.65 1.40 2.25 1.50 2.75 1.50 7.20 -0.05 4.10 -0.20 5.10 -1.25 6.90 -0.65 1.20 -2.05 2.70 -3.10 3.40 -1.70 1.10 -2.40 1.25 -6.80 1.25 -4.45 0 -5.10 -0.10 -6.95 -1.35z"/>
 </g>
 <g fill="#153171">
  <path d="M558 230.15 c0 -0.30 1.25 -3.50 2.75 -7.05 1.50 -3.60 2.75 -6.90 2.75 -7.35 0 -0.45 -0.75 -2.55 -1.70 -4.65 -0.95 -2.15 -4.30 -9.70 -7.50 -16.80 -3.20 -7.10 -5.80 -13.10 -5.80 -13.25 0 -0.30 6.60 -0.35 10.25 -0.10 0.85 0.05 1.80 1.95 5.45 11.30 2.45 6.20 4.60 11.10 4.75 10.95 0.15 -0.15 2.10 -5.25 4.35 -11.35 l4.05 -11.10 5.60 0 c3.05 0 5.55 0.15 5.55 0.30 0 0.45 -18.25 45.50 -19.45 47.90 l-0.80 1.75 -5.10 0 c-3.65 0.05 -5.15 -0.10 -5.15 -0.55z"/>
  <path d="M346.60 217.50 c-5.80 -1.25 -12.05 -5.80 -13.85 -10.20 -2.05 -4.85 -1.90 -12.60 0.30 -16.90 2.30 -4.55 8.65 -8.80 14.65 -9.95 7.20 -1.30 14.85 1.85 18.90 7.85 2.30 3.40 3 5.85 3.10 10.70 l0.05 3.75 -14.10 0 c-7.80 0 -14.15 0.20 -14.20 0.40 -0.15 1.10 1.25 3.25 2.90 4.35 1.40 0.95 2.60 1.30 5.50 1.40 4.55 0.25 5.55 0 8.25 -2.10 l2.20 -1.65 3.60 1.95 c2 1.10 3.60 2.30 3.60 2.65 0 1.10 -4.45 4.70 -7.75 6.25 -3.40 1.65 -9.30 2.30 -13.15 1.50z m11 -21.95 c1.85 -0.05 1.85 -0.10 1.35 -1.40 -1.30 -3.40 -4.15 -5.15 -8.50 -5.15 -2.40 0 -3.60 0.30 -5.20 1.20 -2.25 1.35 -4.40 4.60 -3.40 5.20 0.45 0.30 5.85 0.35 15.75 0.15z"/>
  <path d="M391 217.50 c-5.45 -0.95 -10.35 -4.70 -12.75 -9.80 -1.15 -2.40 -1.45 -3.80 -1.65 -7.65 -0.30 -6.05 0.70 -9.45 3.85 -13.40 5.40 -6.65 16 -8.60 22.65 -4.15 l2.15 1.45 0.25 -1.60 0.25 -1.60 4.75 0 4.75 0 0.15 18.15 0.10 18.10 -5 0 -5 0 0 -1.55 0 -1.50 -1.35 0.95 c-3.10 2.20 -9 3.35 -13.15 2.60z m10.40 -9.75 c2.85 -1.90 4.25 -4.70 4.30 -8.75 0 -2.75 -0.25 -3.70 -1.40 -5.70 -2.30 -3.95 -6.40 -5.55 -11.20 -4.30 -4.45 1.10 -6.80 4.45 -6.85 9.75 0 4.25 1.30 6.90 4.40 8.90 1.70 1.15 2.60 1.35 5.45 1.35 2.80 0 3.75 -0.20 5.30 -1.25z"/>
  <path d="M453.80 217.50 c-1.40 -0.25 -3.05 -0.85 -3.75 -1.40 -2.55 -1.90 -2.80 -2.95 -3.05 -15.55 l-0.25 -11.75 -2 -0.05 -2 0 -0.15 -4.40 -0.15 -4.35 2.25 0 2.25 0 0.15 -4.80 0.15 -4.75 4.75 -0.10 4.75 -0.05 0.15 4.85 0.15 4.85 3.45 0 3.50 0 0 4.50 0 4.50 -3.50 -0.20 -3.50 -0.25 0 9.25 c0 9.15 0 9.25 1.25 10.45 0.90 0.95 1.75 1.25 3.50 1.25 l2.30 0 -0.15 4.15 -0.15 4.10 -3.75 0.10 c-2.05 0 -4.85 -0.15 -6.20 -0.35z"/>
  <path d="M524.60 217.25 c-3.60 -0.65 -7.70 -2.35 -10.05 -4.20 l-1.20 -0.90 2.10 -2.60 c1.10 -1.45 2.25 -2.95 2.45 -3.35 0.35 -0.60 0.95 -0.45 3.60 0.90 2.60 1.30 4 1.65 7.25 1.80 3.55 0.20 4.15 0.10 5.40 -0.90 1.45 -1.15 1.75 -2.55 0.65 -3.45 -0.35 -0.30 -3.55 -1.10 -7.05 -1.80 -6.40 -1.20 -7.80 -1.80 -10.40 -4.20 -2.30 -2.10 -3.05 -3.95 -3 -7.55 0 -5.30 2.05 -7.90 7.65 -9.80 4 -1.40 11.25 -1.30 15.20 0.20 3.35 1.20 6.95 3.45 6.70 4.10 -0.10 0.20 -1.20 1.75 -2.50 3.40 l-2.30 3 -2.70 -1.35 c-3.40 -1.70 -10.20 -2.15 -11.55 -0.80 -2.10 2.10 -0.30 3.50 5.95 4.75 11.20 2.15 14.30 4.70 14.35 11.70 0.05 9.05 -7.90 13.35 -20.55 11.05z"/>
  <path d="M652 217.55 c-5.75 -1.20 -11.95 -6.50 -14 -12.05 -4.10 -11.05 2.95 -22.70 15.10 -25.05 5.05 -0.95 11.70 0.75 15.80 4.05 1.70 1.35 5.10 5.45 5.10 6.15 0 0.10 -1.90 0.95 -4.20 1.85 l-4.20 1.60 -2.25 -2.25 c-2.55 -2.55 -4.45 -3.15 -8.45 -2.70 -7.80 0.95 -11.15 11.25 -5.45 16.90 3.20 3.20 8.90 3.95 12.35 1.65 1.05 -0.70 2.40 -1.85 2.95 -2.50 l1 -1.15 4 1.55 c2.20 0.85 4.10 1.60 4.15 1.70 0.40 0.30 -3.90 5.55 -5.45 6.75 -4.20 3.10 -11.10 4.55 -16.45 3.50z"/>
  <path d="M289.50 192 l0 -25 4.75 0 4.75 0 0 8.25 c0 4.55 0.15 8.25 0.30 8.25 0.15 0 0.95 -0.50 1.80 -1.05 4.50 -3.25 12.75 -3.10 17.20 0.30 1.85 1.40 3.60 4.40 4.25 7.25 0.25 0.95 0.45 7.40 0.45 14.25 l0.05 12.50 -5 0.15 -5 0.15 -0.15 -12.40 c-0.15 -13.60 -0.25 -14 -3.20 -15.40 -2.35 -1.10 -5.25 -0.95 -7.25 0.40 -3 2 -3.20 2.85 -3.35 15.75 l-0.20 11.60 -4.70 0 -4.70 0 0 -25z"/>
  <path d="M425 192 l0 -25 5 0 5 0 0 25 0 25 -5 0 -5 0 0 -25z"/>
  <path d="M472 192 l0 -25 4.75 0 4.75 0 0 8.25 c0 4.55 0.10 8.25 0.25 8.25 0.15 0 1.10 -0.55 2.15 -1.20 2.55 -1.70 6.10 -2.50 9.55 -2.15 5.25 0.55 8.30 2.45 10.45 6.50 l1.35 2.60 0.15 13.90 0.15 13.85 -5 0 -5 0 -0.15 -12.35 c-0.15 -11 -0.25 -12.55 -1.05 -13.75 -1.70 -2.45 -6.35 -3.15 -9.20 -1.40 -3.15 1.90 -3.40 2.95 -3.55 15.90 l-0.20 11.60 -4.70 0 -4.70 0 0 -25z"/>
  <path d="M594.60 198.90 l0.15 -18.15 3.75 -0.15 c5 -0.20 6 0.10 6 1.65 0 1.55 0.05 1.55 2.20 0.05 5.65 -3.85 15.70 -2.45 19.10 2.65 2.40 3.70 2.70 5.70 2.70 19.40 l0 12.65 -4.95 0 -4.95 0 -0.20 -12.35 c-0.15 -10.85 -0.25 -12.55 -1.05 -13.70 -1.15 -1.75 -2.90 -2.45 -5.90 -2.45 -2.10 0 -2.75 0.25 -4.25 1.65 -1.10 1 -1.90 2.35 -2.20 3.60 -0.25 1.10 -0.50 6.80 -0.50 12.65 l0 10.60 -5 0 -5 0 0.10 -18.10z"/>
 </g>
 <g fill="#1e56a0">
  <path d="M180.95 244.80 c-5.90 -1.55 -11.70 -6.85 -14 -12.60 -0.90 -2.35 -1.15 -3.95 -1.15 -8 -0.05 -4.80 0.05 -5.15 1.80 -8.75 1.45 -2.95 2.95 -4.80 7.10 -8.95 l5.30 -5.25 1.35 1.40 1.40 1.35 -5.10 5.15 c-6.60 6.60 -7.90 9.20 -7.85 15.35 0.05 5.05 1.10 7.80 4.25 11.25 3.95 4.25 8.55 6.05 14.60 5.65 5.15 -0.35 7.65 -1.70 13.70 -7.60 l5.15 -4.95 1.25 1.15 c0.70 0.65 1.25 1.35 1.25 1.50 0 0.65 -8.95 9.20 -11.10 10.65 -4.50 3 -12.35 4.15 -17.95 2.65z"/>
  <path d="M234.25 244.80 c-4.15 -1.30 -6.50 -3.05 -13.60 -9.95 l-7.30 -7.15 14.90 -14.45 c8.15 -8 15 -14.55 15.20 -14.65 0.15 -0.05 3.40 2.85 7.10 6.50 5.70 5.55 7.10 7.20 8.50 10.15 1.65 3.35 1.70 3.70 1.70 9.25 0 5.25 -0.10 6 -1.35 8.50 -2.85 5.80 -8.15 10.20 -14.10 11.80 -3.15 0.85 -8.40 0.85 -11.05 0z"/>
  <path d="M198.15 212.90 c-6.95 -6.90 -12.55 -12.60 -12.50 -12.60 0.10 -0.05 6.90 -6.75 15.20 -15 l15.05 -14.95 12.65 12.60 12.65 12.60 -14.95 14.95 c-8.25 8.25 -15.10 15 -15.25 15 -0.15 0 -5.95 -5.65 -12.85 -12.60z m17.60 1.60 c0.75 -0.30 1.60 -1.20 2 -2.20 1.05 -2.55 0.20 -4.65 -2.40 -5.80 -1.85 -0.85 -2.15 -0.85 -3.65 -0.15 -2.45 1.20 -3.40 3.95 -2.10 6.30 1.20 2.25 3.35 2.90 6.15 1.85z m-11.55 -13.25 c2.55 -2.35 1.45 -6.70 -1.95 -7.55 -4.70 -1.15 -7.70 3.95 -4.30 7.35 1.90 1.90 4.35 1.95 6.25 0.20z m24.85 -0.20 c2 -2 1.95 -4.10 -0.05 -6.15 -1.35 -1.35 -1.80 -1.50 -3.65 -1.25 -2.55 0.35 -3.85 1.80 -3.85 4.30 0 4.20 4.55 6.05 7.55 3.10z m-13.80 -11.25 c3.10 -1.30 3.70 -4.45 1.30 -6.85 -1 -1 -1.95 -1.45 -3.05 -1.45 -1.10 0 -2.05 0.45 -3.05 1.45 -2.35 2.35 -1.80 5.50 1.20 6.80 2 0.90 1.60 0.85 3.60 0.05z"/>
  <path d="M176.45 191.30 c-8.50 -8.90 -10.10 -11.75 -10.35 -18.35 -0.30 -7.30 1.85 -12.60 6.80 -16.85 3.60 -3.10 6.40 -4.40 10.90 -5.15 4.40 -0.70 8.50 -0.10 12.75 1.90 2.25 1.05 4.60 3.05 9.95 8.35 3.85 3.85 7 7.05 7 7.10 0 0.10 -6.80 6.90 -15.10 15.15 -8.35 8.30 -15.15 15 -15.15 15 0 -0.05 -3.05 -3.25 -6.80 -7.15z"/>
  <path d="M245.75 193.25 l-1.50 -1.20 5.15 -5.15 c6.60 -6.60 7.85 -8.95 7.85 -14.90 0 -3.55 -0.20 -4.70 -1.35 -7.10 -1.60 -3.50 -4.90 -6.90 -8.50 -8.70 -2.30 -1.25 -3.25 -1.40 -7.15 -1.45 -6.15 0 -8.80 1.30 -15.40 7.70 -5.10 4.95 -5.65 5.20 -7.05 2.85 -0.45 -0.75 0.25 -1.65 4.75 -5.95 6.20 -5.95 9.10 -7.60 14.85 -8.45 3.10 -0.45 4.60 -0.45 6.80 0.05 6.80 1.50 12.65 6.05 15.45 11.90 1.50 3.20 1.60 3.75 1.60 8.90 0 5.25 -0.10 5.70 -1.70 8.95 -1.20 2.45 -3.05 4.85 -6.65 8.60 -2.75 2.85 -5.15 5.20 -5.35 5.20 -0.15 0 -0.95 -0.55 -1.80 -1.25z"/>
 </g>
</svg>